<?xml version="1.0" standalone="no"?>
<!DOCTYPE svg PUBLIC "-//W3C//DTD SVG 20010904//EN"
 "http://www.w3.org/TR/2001/REC-SVG-20010904/DTD/svg10.dtd">
<svg version="1.0" xmlns="http://www.w3.org/2000/svg"
 width="512.000000pt" height="512.000000pt" viewBox="0 0 512.000000 512.000000"
 preserveAspectRatio="xMidYMid meet">
<metadata>
Created by potrace 1.14, written by Peter Selinger 2001-2017
</metadata>
<g transform="translate(0.000000,512.000000) scale(0.100000,-0.100000)"
fill="#000000" stroke="none">
<path d="M3835 5110 c-22 -4 -53 -10 -70 -13 -16 -2 -66 -15 -110 -27 -173
-49 -300 -120 -431 -243 -74 -69 -211 -241 -207 -258 2 -5 -1 -9 -6 -9 -5 0
-16 -12 -24 -27 -34 -65 -71 -128 -80 -134 -5 -3 -8 -9 -7 -13 1 -4 -24 -59
-55 -122 -31 -64 -58 -121 -59 -127 -1 -7 -7 -22 -14 -34 -7 -12 -12 -29 -12
-37 0 -9 -4 -16 -10 -16 -5 0 -10 -7 -10 -15 0 -8 -6 -29 -14 -47 -26 -59
-106 -271 -106 -281 0 -5 -6 -23 -14 -40 -15 -33 -35 -94 -37 -112 -1 -5 -10
-32 -21 -60 -11 -27 -20 -52 -20 -55 0 -3 -2 -9 -4 -15 -2 -5 -17 -53 -33
-105 -16 -52 -42 -134 -57 -182 l-27 -87 -466 0 c-256 0 -530 0 -608 -1 l-143
0 0 -263 0 -264 507 -1 c280 0 519 -1 532 -1 19 -1 22 -5 16 -23 -3 -13 -7
-29 -7 -35 -1 -7 -4 -13 -8 -13 -3 0 -6 -8 -7 -17 -1 -23 -8 -51 -22 -85 -6
-16 -8 -28 -5 -28 2 0 -2 -13 -11 -30 -9 -16 -13 -30 -11 -30 3 0 1 -12 -5
-27 -6 -16 -13 -39 -16 -53 -8 -42 -11 -55 -13 -55 -1 0 -4 -11 -7 -25 -7 -38
-11 -55 -13 -57 -2 -2 -4 -7 -5 -13 -1 -5 -4 -12 -5 -15 -3 -6 -2 -4 -15 -60
-10 -47 -12 -54 -15 -57 -1 -2 -3 -12 -5 -23 -4 -20 -19 -75 -36 -132 -6 -18
-12 -40 -14 -50 -2 -10 -9 -34 -15 -53 -6 -19 -14 -48 -17 -65 -3 -16 -8 -34
-13 -40 -4 -5 -11 -23 -15 -40 -10 -35 -9 -34 -20 -60 -46 -119 -89 -221 -94
-225 -3 -3 -7 -12 -9 -20 -5 -24 -56 -124 -67 -132 -7 -5 -7 -8 0 -8 7 0 7 -3
0 -8 -5 -4 -23 -32 -39 -62 -27 -50 -124 -203 -153 -240 -203 -261 -376 -377
-552 -369 -62 3 -109 16 -159 42 -42 23 -40 33 5 48 215 69 345 241 345 452 0
45 -5 94 -10 108 -6 15 -8 30 -5 33 4 3 0 6 -7 6 -7 0 -11 3 -7 6 3 3 -3 23
-14 42 -10 20 -19 40 -19 45 0 25 -143 163 -199 191 -145 74 -326 75 -469 2
-59 -30 -144 -105 -173 -154 -13 -20 -27 -40 -31 -43 -5 -3 -10 -16 -11 -27
-1 -12 -5 -22 -9 -22 -4 0 -8 -9 -8 -20 0 -11 -5 -20 -11 -20 -5 0 -8 -4 -5
-9 4 -5 1 -22 -5 -38 -6 -15 -13 -39 -14 -53 -2 -14 -7 -52 -12 -85 -19 -130
-1 -256 50 -357 51 -101 146 -217 227 -278 18 -14 38 -30 44 -35 19 -19 109
-71 176 -102 147 -70 300 -101 477 -98 206 3 378 51 568 158 77 43 185 119
185 129 0 6 3 9 6 5 21 -21 296 277 390 423 16 25 32 47 35 50 16 13 209 376
209 393 0 3 13 34 29 69 25 56 41 93 46 108 1 3 7 19 14 35 6 17 19 50 28 75
9 25 20 50 24 55 3 6 10 26 14 45 4 19 13 49 20 65 21 48 59 169 57 179 -2 4
2 13 7 20 5 6 17 38 26 71 9 33 21 71 26 85 5 14 11 34 14 45 15 68 30 111 39
117 6 4 8 8 4 8 -4 0 -2 15 3 33 6 17 12 43 15 57 2 14 11 42 19 63 8 20 14
41 14 45 -1 4 0 10 1 15 1 4 4 12 5 17 1 6 3 11 5 13 1 1 3 9 5 17 1 8 10 40
19 70 l16 55 587 -2 c324 -1 597 0 608 2 19 4 20 11 18 67 -2 35 -3 70 -3 78
4 125 2 371 -3 376 -3 3 -245 6 -536 6 -292 -1 -531 1 -531 4 0 9 22 99 28
114 3 8 6 23 7 33 2 9 3 18 5 20 2 2 0 -4 35 137 14 58 28 112 32 120 3 8 7
20 8 25 2 6 8 30 15 55 7 25 14 52 16 60 2 8 10 40 19 70 9 30 17 61 17 68 1
6 6 12 11 12 6 0 8 3 5 6 -6 5 12 72 32 119 4 11 21 58 36 105 15 47 31 90 35
95 3 6 12 28 19 50 21 66 120 265 169 340 113 173 274 269 410 243 69 -13 125
-63 137 -121 4 -25 -16 -97 -28 -97 -4 0 -8 -6 -8 -13 0 -7 -9 -23 -20 -35
-11 -12 -20 -24 -20 -28 0 -3 -13 -23 -28 -43 -31 -40 -60 -97 -65 -129 -2
-12 -5 -24 -8 -27 -3 -2 -4 -24 -3 -47 8 -150 86 -265 222 -330 151 -72 384
-30 507 91 130 128 176 262 153 446 -7 57 -10 72 -24 140 -20 92 -134 279
-222 363 -99 94 -286 175 -482 207 -61 10 -303 13 -345 5z"/>
</g>
</svg>
